<mxfile host="app.diagrams.net" modified="2022-09-07T08:23:49.763Z" agent="5.0 (X11; Linux x86_64) AppleWebKit/537.36 (KHTML, like Gecko) Chrome/103.0.0.0 Safari/537.36" etag="Zth5BsOsTE71uFsYK5IV" version="20.2.8" type="github">
  <diagram name="Page-1" id="e7e014a7-5840-1c2e-5031-d8a46d1fe8dd">
    <mxGraphModel dx="1350" dy="1538" grid="1" gridSize="10" guides="1" tooltips="1" connect="1" arrows="1" fold="1" page="1" pageScale="1" pageWidth="1169" pageHeight="826" background="none" math="0" shadow="0">
      <root>
        <mxCell id="0" />
        <mxCell id="1" parent="0" />
        <mxCell id="2" value="user" style="swimlane;whiteSpace=wrap" parent="1" vertex="1">
          <mxGeometry x="190" y="70" width="302.5" height="628" as="geometry" />
        </mxCell>
        <mxCell id="6KG0xVXZsNQjzqFw-aA6-51" value="bắt đầu" style="ellipse;whiteSpace=wrap;html=1;aspect=fixed;" vertex="1" parent="2">
          <mxGeometry x="90" y="30" width="50" height="50" as="geometry" />
        </mxCell>
        <mxCell id="6KG0xVXZsNQjzqFw-aA6-52" value="cho người dùng nhập vào text box" style="whiteSpace=wrap;html=1;aspect=fixed;" vertex="1" parent="2">
          <mxGeometry x="75" y="112" width="80" height="80" as="geometry" />
        </mxCell>
        <mxCell id="6KG0xVXZsNQjzqFw-aA6-61" value="user chọn các industry" style="whiteSpace=wrap;html=1;aspect=fixed;" vertex="1" parent="2">
          <mxGeometry x="75" y="222" width="85" height="85" as="geometry" />
        </mxCell>
        <mxCell id="6KG0xVXZsNQjzqFw-aA6-62" value="user chọn address" style="whiteSpace=wrap;html=1;aspect=fixed;" vertex="1" parent="2">
          <mxGeometry x="75" y="332" width="80" height="80" as="geometry" />
        </mxCell>
        <mxCell id="6KG0xVXZsNQjzqFw-aA6-64" value="" style="endArrow=classic;startArrow=classic;html=1;rounded=0;entryX=0;entryY=0.5;entryDx=0;entryDy=0;exitX=0;exitY=0.463;exitDx=0;exitDy=0;exitPerimeter=0;" edge="1" parent="2" source="6KG0xVXZsNQjzqFw-aA6-62" target="6KG0xVXZsNQjzqFw-aA6-51">
          <mxGeometry width="50" height="50" relative="1" as="geometry">
            <mxPoint x="30" y="392" as="sourcePoint" />
            <mxPoint x="50" y="52" as="targetPoint" />
            <Array as="points">
              <mxPoint x="30" y="372" />
              <mxPoint x="30" y="142" />
              <mxPoint x="30" y="55" />
            </Array>
          </mxGeometry>
        </mxCell>
        <mxCell id="6KG0xVXZsNQjzqFw-aA6-65" value="" style="endArrow=classic;html=1;rounded=0;" edge="1" parent="2">
          <mxGeometry width="50" height="50" relative="1" as="geometry">
            <mxPoint x="25" y="272" as="sourcePoint" />
            <mxPoint x="80" y="272" as="targetPoint" />
          </mxGeometry>
        </mxCell>
        <mxCell id="6KG0xVXZsNQjzqFw-aA6-66" value="" style="endArrow=classic;html=1;rounded=0;entryX=-0.012;entryY=0.588;entryDx=0;entryDy=0;entryPerimeter=0;" edge="1" parent="2" target="6KG0xVXZsNQjzqFw-aA6-52">
          <mxGeometry width="50" height="50" relative="1" as="geometry">
            <mxPoint x="30" y="159" as="sourcePoint" />
            <mxPoint x="75" y="127" as="targetPoint" />
          </mxGeometry>
        </mxCell>
        <mxCell id="6KG0xVXZsNQjzqFw-aA6-73" value="" style="endArrow=none;html=1;rounded=0;" edge="1" parent="2">
          <mxGeometry width="50" height="50" relative="1" as="geometry">
            <mxPoint x="210" y="377" as="sourcePoint" />
            <mxPoint x="210" y="147" as="targetPoint" />
          </mxGeometry>
        </mxCell>
        <mxCell id="6KG0xVXZsNQjzqFw-aA6-80" value="" style="endArrow=none;html=1;rounded=0;" edge="1" parent="2">
          <mxGeometry width="50" height="50" relative="1" as="geometry">
            <mxPoint x="160" y="272" as="sourcePoint" />
            <mxPoint x="210" y="272" as="targetPoint" />
          </mxGeometry>
        </mxCell>
        <mxCell id="6KG0xVXZsNQjzqFw-aA6-81" value="" style="endArrow=none;html=1;rounded=0;" edge="1" parent="2">
          <mxGeometry width="50" height="50" relative="1" as="geometry">
            <mxPoint x="155" y="372" as="sourcePoint" />
            <mxPoint x="210" y="372" as="targetPoint" />
          </mxGeometry>
        </mxCell>
        <mxCell id="3" value="front-end     " style="swimlane;whiteSpace=wrap" parent="1" vertex="1">
          <mxGeometry x="480" y="70" width="280" height="628" as="geometry" />
        </mxCell>
        <mxCell id="6KG0xVXZsNQjzqFw-aA6-56" value="hiển thị màn hình người dùng" style="whiteSpace=wrap;html=1;aspect=fixed;" vertex="1" parent="3">
          <mxGeometry x="65" y="102" width="80" height="80" as="geometry" />
        </mxCell>
        <mxCell id="6KG0xVXZsNQjzqFw-aA6-87" value="" style="endArrow=classic;html=1;rounded=0;entryX=-0.033;entryY=0.58;entryDx=0;entryDy=0;entryPerimeter=0;" edge="1" parent="3" target="6KG0xVXZsNQjzqFw-aA6-94">
          <mxGeometry width="50" height="50" relative="1" as="geometry">
            <mxPoint x="150" y="141.5" as="sourcePoint" />
            <mxPoint x="330" y="141.5" as="targetPoint" />
            <Array as="points">
              <mxPoint x="320" y="142" />
              <mxPoint x="320" y="172" />
              <mxPoint x="350" y="172" />
            </Array>
          </mxGeometry>
        </mxCell>
        <mxCell id="6KG0xVXZsNQjzqFw-aA6-125" value="hiển thị màn hình người dùng" style="whiteSpace=wrap;html=1;aspect=fixed;" vertex="1" parent="3">
          <mxGeometry x="65" y="262" width="80" height="80" as="geometry" />
        </mxCell>
        <mxCell id="6KG0xVXZsNQjzqFw-aA6-128" value="kết thúc" style="whiteSpace=wrap;html=1;aspect=fixed;" vertex="1" parent="3">
          <mxGeometry x="65" y="390" width="80" height="80" as="geometry" />
        </mxCell>
        <mxCell id="6KG0xVXZsNQjzqFw-aA6-129" value="" style="endArrow=classic;html=1;rounded=0;exitX=0.525;exitY=1.013;exitDx=0;exitDy=0;exitPerimeter=0;" edge="1" parent="3" source="6KG0xVXZsNQjzqFw-aA6-125">
          <mxGeometry width="50" height="50" relative="1" as="geometry">
            <mxPoint x="105" y="350" as="sourcePoint" />
            <mxPoint x="107" y="390" as="targetPoint" />
          </mxGeometry>
        </mxCell>
        <mxCell id="6KG0xVXZsNQjzqFw-aA6-41" value="DB" style="swimlane;whiteSpace=wrap" vertex="1" parent="1">
          <mxGeometry x="1060" y="70" width="354.5" height="628" as="geometry" />
        </mxCell>
        <mxCell id="6KG0xVXZsNQjzqFw-aA6-112" value="" style="edgeStyle=orthogonalEdgeStyle;rounded=0;orthogonalLoop=1;jettySize=auto;html=1;" edge="1" parent="6KG0xVXZsNQjzqFw-aA6-41" source="6KG0xVXZsNQjzqFw-aA6-58">
          <mxGeometry relative="1" as="geometry">
            <mxPoint x="40" y="71" as="targetPoint" />
          </mxGeometry>
        </mxCell>
        <mxCell id="6KG0xVXZsNQjzqFw-aA6-58" value="name&amp;nbsp;" style="rounded=0;whiteSpace=wrap;html=1;" vertex="1" parent="6KG0xVXZsNQjzqFw-aA6-41">
          <mxGeometry x="100" y="52" width="120" height="38" as="geometry" />
        </mxCell>
        <mxCell id="6KG0xVXZsNQjzqFw-aA6-118" value="" style="edgeStyle=orthogonalEdgeStyle;rounded=0;orthogonalLoop=1;jettySize=auto;html=1;" edge="1" parent="6KG0xVXZsNQjzqFw-aA6-41" source="6KG0xVXZsNQjzqFw-aA6-57">
          <mxGeometry relative="1" as="geometry">
            <mxPoint x="40" y="121" as="targetPoint" />
          </mxGeometry>
        </mxCell>
        <mxCell id="6KG0xVXZsNQjzqFw-aA6-57" value="name_kana" style="rounded=0;whiteSpace=wrap;html=1;" vertex="1" parent="6KG0xVXZsNQjzqFw-aA6-41">
          <mxGeometry x="100" y="102" width="120" height="38" as="geometry" />
        </mxCell>
        <mxCell id="6KG0xVXZsNQjzqFw-aA6-116" value="" style="edgeStyle=orthogonalEdgeStyle;rounded=0;orthogonalLoop=1;jettySize=auto;html=1;" edge="1" parent="6KG0xVXZsNQjzqFw-aA6-41" source="6KG0xVXZsNQjzqFw-aA6-59">
          <mxGeometry relative="1" as="geometry">
            <mxPoint x="40" y="180" as="targetPoint" />
          </mxGeometry>
        </mxCell>
        <mxCell id="6KG0xVXZsNQjzqFw-aA6-59" value="name_english" style="rounded=0;whiteSpace=wrap;html=1;" vertex="1" parent="6KG0xVXZsNQjzqFw-aA6-41">
          <mxGeometry x="100" y="162" width="120" height="38" as="geometry" />
        </mxCell>
        <mxCell id="6KG0xVXZsNQjzqFw-aA6-114" value="" style="edgeStyle=orthogonalEdgeStyle;rounded=0;orthogonalLoop=1;jettySize=auto;html=1;" edge="1" parent="6KG0xVXZsNQjzqFw-aA6-41" source="6KG0xVXZsNQjzqFw-aA6-101">
          <mxGeometry relative="1" as="geometry">
            <mxPoint x="40" y="240" as="targetPoint" />
          </mxGeometry>
        </mxCell>
        <mxCell id="6KG0xVXZsNQjzqFw-aA6-101" value="địa chỉ&amp;nbsp;" style="rounded=0;whiteSpace=wrap;html=1;" vertex="1" parent="6KG0xVXZsNQjzqFw-aA6-41">
          <mxGeometry x="100" y="220" width="120" height="38" as="geometry" />
        </mxCell>
        <mxCell id="6KG0xVXZsNQjzqFw-aA6-110" value="" style="edgeStyle=orthogonalEdgeStyle;rounded=0;orthogonalLoop=1;jettySize=auto;html=1;" edge="1" parent="6KG0xVXZsNQjzqFw-aA6-41" source="6KG0xVXZsNQjzqFw-aA6-104">
          <mxGeometry relative="1" as="geometry">
            <mxPoint x="40" y="289" as="targetPoint" />
          </mxGeometry>
        </mxCell>
        <mxCell id="6KG0xVXZsNQjzqFw-aA6-104" value="nhân viên cty&amp;nbsp;" style="rounded=0;whiteSpace=wrap;html=1;" vertex="1" parent="6KG0xVXZsNQjzqFw-aA6-41">
          <mxGeometry x="100" y="270" width="120" height="38" as="geometry" />
        </mxCell>
        <mxCell id="6KG0xVXZsNQjzqFw-aA6-107" value="" style="endArrow=none;html=1;rounded=0;" edge="1" parent="6KG0xVXZsNQjzqFw-aA6-41">
          <mxGeometry width="50" height="50" relative="1" as="geometry">
            <mxPoint x="40" y="300" as="sourcePoint" />
            <mxPoint x="40" y="70" as="targetPoint" />
            <Array as="points" />
          </mxGeometry>
        </mxCell>
        <mxCell id="6KG0xVXZsNQjzqFw-aA6-122" value="" style="shape=waypoint;sketch=0;size=6;pointerEvents=1;points=[];fillColor=rgb(255, 255, 255);resizable=0;rotatable=0;perimeter=centerPerimeter;snapToPoint=1;" vertex="1" parent="6KG0xVXZsNQjzqFw-aA6-41">
          <mxGeometry x="20" y="250" width="40" height="40" as="geometry" />
        </mxCell>
        <mxCell id="6KG0xVXZsNQjzqFw-aA6-76" value="" style="edgeStyle=orthogonalEdgeStyle;rounded=0;orthogonalLoop=1;jettySize=auto;html=1;entryX=-0.019;entryY=0.588;entryDx=0;entryDy=0;entryPerimeter=0;" edge="1" parent="1" source="6KG0xVXZsNQjzqFw-aA6-52" target="6KG0xVXZsNQjzqFw-aA6-56">
          <mxGeometry relative="1" as="geometry">
            <mxPoint x="540" y="280" as="targetPoint" />
            <Array as="points">
              <mxPoint x="450" y="222" />
              <mxPoint x="450" y="219" />
            </Array>
          </mxGeometry>
        </mxCell>
        <mxCell id="6KG0xVXZsNQjzqFw-aA6-84" value="front-end     " style="swimlane;whiteSpace=wrap" vertex="1" parent="1">
          <mxGeometry x="770" y="70" width="320" height="628" as="geometry" />
        </mxCell>
        <mxCell id="6KG0xVXZsNQjzqFw-aA6-93" value="USER-API" style="shape=trapezoid;perimeter=trapezoidPerimeter;whiteSpace=wrap;html=1;fixedSize=1;verticalAlign=top;" vertex="1" parent="6KG0xVXZsNQjzqFw-aA6-84">
          <mxGeometry x="50" y="102" width="170" height="258" as="geometry" />
        </mxCell>
        <mxCell id="6KG0xVXZsNQjzqFw-aA6-94" value="nhận các key ( cty phù hợp)" style="rounded=0;whiteSpace=wrap;html=1;" vertex="1" parent="6KG0xVXZsNQjzqFw-aA6-84">
          <mxGeometry x="80" y="140" width="110" height="50" as="geometry" />
        </mxCell>
        <mxCell id="6KG0xVXZsNQjzqFw-aA6-95" value="" style="endArrow=classic;html=1;rounded=0;exitX=0.088;exitY=0.267;exitDx=0;exitDy=0;exitPerimeter=0;entryX=0.006;entryY=0.634;entryDx=0;entryDy=0;entryPerimeter=0;" edge="1" parent="6KG0xVXZsNQjzqFw-aA6-84" source="6KG0xVXZsNQjzqFw-aA6-93" target="6KG0xVXZsNQjzqFw-aA6-94">
          <mxGeometry width="50" height="50" relative="1" as="geometry">
            <mxPoint x="70" y="172" as="sourcePoint" />
            <mxPoint x="90" y="152" as="targetPoint" />
          </mxGeometry>
        </mxCell>
        <mxCell id="6KG0xVXZsNQjzqFw-aA6-103" value="xác định&amp;nbsp; các thông tin của từng cty list ra" style="whiteSpace=wrap;html=1;aspect=fixed;" vertex="1" parent="6KG0xVXZsNQjzqFw-aA6-84">
          <mxGeometry x="100" y="230" width="80" height="80" as="geometry" />
        </mxCell>
        <mxCell id="6KG0xVXZsNQjzqFw-aA6-98" value="user-api của thông tin tìm kiếm:&lt;br&gt;name: string&lt;br&gt;industry: industry&lt;br&gt;prefecture_code: int" style="rounded=0;whiteSpace=wrap;html=1;" vertex="1" parent="1">
          <mxGeometry x="731" y="-50" width="120" height="100" as="geometry" />
        </mxCell>
        <mxCell id="6KG0xVXZsNQjzqFw-aA6-99" value="" style="endArrow=classic;html=1;rounded=0;" edge="1" parent="1" target="6KG0xVXZsNQjzqFw-aA6-93">
          <mxGeometry width="50" height="50" relative="1" as="geometry">
            <mxPoint x="910" y="260" as="sourcePoint" />
            <mxPoint x="910" y="290" as="targetPoint" />
            <Array as="points">
              <mxPoint x="910" y="260" />
            </Array>
          </mxGeometry>
        </mxCell>
        <mxCell id="6KG0xVXZsNQjzqFw-aA6-124" value="" style="edgeStyle=orthogonalEdgeStyle;rounded=0;orthogonalLoop=1;jettySize=auto;html=1;" edge="1" parent="1" source="6KG0xVXZsNQjzqFw-aA6-122">
          <mxGeometry relative="1" as="geometry">
            <mxPoint x="950" y="330" as="targetPoint" />
          </mxGeometry>
        </mxCell>
        <mxCell id="6KG0xVXZsNQjzqFw-aA6-127" value="" style="endArrow=classic;html=1;rounded=0;entryX=1.063;entryY=0.35;entryDx=0;entryDy=0;entryPerimeter=0;" edge="1" parent="1" target="6KG0xVXZsNQjzqFw-aA6-125">
          <mxGeometry width="50" height="50" relative="1" as="geometry">
            <mxPoint x="870" y="350" as="sourcePoint" />
            <mxPoint x="970" y="300" as="targetPoint" />
          </mxGeometry>
        </mxCell>
      </root>
    </mxGraphModel>
  </diagram>
</mxfile>
